<svg width="32" height="32" viewBox="0 0 32 32" fill="none" xmlns="http://www.w3.org/2000/svg">
<g clip-path="url(#clip0_2496_1172)">
<path d="M11 17C11.9889 17 12.9556 17.2932 13.7779 17.8427C14.6001 18.3921 15.241 19.173 15.6194 20.0866C15.9978 21.0002 16.0969 22.0055 15.9039 22.9755C15.711 23.9454 15.2348 24.8363 14.5355 25.5355C13.8363 26.2348 12.9454 26.711 11.9755 26.9039C11.0055 27.0969 10.0002 26.9978 9.08658 26.6194C8.17295 26.241 7.39206 25.6001 6.84265 24.7779C6.29324 23.9556 6 22.9889 6 22V21.1588" stroke="white" stroke-width="2" stroke-linecap="round" stroke-linejoin="round"/>
<path d="M21 17C20.0111 17 19.0444 17.2932 18.2222 17.8427C17.3999 18.3921 16.759 19.173 16.3806 20.0866C16.0022 21.0002 15.9031 22.0055 16.0961 22.9755C16.289 23.9454 16.7652 24.8363 17.4645 25.5355C18.1637 26.2348 19.0546 26.711 20.0246 26.9039C20.9945 27.0969 21.9998 26.9978 22.9134 26.6194C23.8271 26.241 24.6079 25.6001 25.1574 24.7779C25.7068 23.9556 26 22.9889 26 22V21.1588" stroke="white" stroke-width="2" stroke-linecap="round" stroke-linejoin="round"/>
<path d="M8.99953 21.5H7.99953C6.5832 21.5013 5.21209 21.0015 4.12883 20.089C3.04556 19.1766 2.32 17.9104 2.08053 16.5145C1.84107 15.1185 2.10314 13.6829 2.82037 12.4616C3.53761 11.2403 4.66376 10.3121 5.99953 9.84125V9C5.99953 7.67392 6.52631 6.40215 7.464 5.46447C8.40168 4.52678 9.67345 4 10.9995 4C12.3256 4 13.5974 4.52678 14.5351 5.46447C15.4727 6.40215 15.9995 7.67392 15.9995 9V22" stroke="white" stroke-width="2" stroke-linecap="round" stroke-linejoin="round"/>
<path d="M23 21.5H24C25.4163 21.5013 26.7874 21.0015 27.8707 20.089C28.954 19.1766 29.6795 17.9104 29.919 16.5145C30.1585 15.1185 29.8964 13.6829 29.1792 12.4616C28.4619 11.2403 27.3358 10.3121 26 9.84125V9C26 7.67392 25.4732 6.40215 24.5355 5.46447C23.5979 4.52678 22.3261 4 21 4C19.6739 4 18.4021 4.52678 17.4645 5.46447C16.5268 6.40215 16 7.67392 16 9" stroke="white" stroke-width="2" stroke-linecap="round" stroke-linejoin="round"/>
<path d="M25 14H24.5C23.5717 14 22.6815 13.6313 22.0251 12.9749C21.3687 12.3185 21 11.4283 21 10.5V10" stroke="white" stroke-width="2" stroke-linecap="round" stroke-linejoin="round"/>
<path d="M7 14H7.5C8.42826 14 9.3185 13.6313 9.97487 12.9749C10.6313 12.3185 11 11.4283 11 10.5V10" stroke="white" stroke-width="2" stroke-linecap="round" stroke-linejoin="round"/>
</g>
<defs>
<clipPath id="clip0_2496_1172">
<rect width="32" height="32" fill="white"/>
</clipPath>
</defs>
</svg>
