<svg width="32" height="32" viewBox="0 0 32 32" fill="none" xmlns="http://www.w3.org/2000/svg">
<g clip-path="url(#clip0_2496_1149)">
<path d="M23 9L4 28" stroke="white" stroke-width="2" stroke-linecap="round" stroke-linejoin="round"/>
<path d="M18.2925 23.7075C18.1051 23.8947 17.8511 23.9999 17.5863 24H8V14.4137C8.00012 14.1489 8.10532 13.8949 8.2925 13.7075L17.05 5.04999C18.3628 3.73717 20.1434 2.99963 22 2.99963C22.9193 2.99963 23.8296 3.1807 24.6789 3.5325C25.5282 3.88431 26.3 4.39995 26.95 5.04999C27.6 5.70003 28.1157 6.47175 28.4675 7.32107C28.8193 8.17039 29.0004 9.08069 29.0004 9.99999C29.0004 10.9193 28.8193 11.8296 28.4675 12.6789C28.1157 13.5282 27.6 14.2999 26.95 14.95L18.2925 23.7075Z" stroke="white" stroke-width="2" stroke-linecap="round" stroke-linejoin="round"/>
<path d="M14 8.06494V17.9999" stroke="white" stroke-width="2" stroke-linecap="round" stroke-linejoin="round"/>
<path d="M17 15H26.9" stroke="white" stroke-width="2" stroke-linecap="round" stroke-linejoin="round"/>
</g>
<defs>
<clipPath id="clip0_2496_1149">
<rect width="32" height="32" fill="white"/>
</clipPath>
</defs>
</svg>
