<svg width="32" height="32" viewBox="0 0 32 32" fill="none" xmlns="http://www.w3.org/2000/svg">
<g clip-path="url(#clip0_2496_1161)">
<path d="M16 7.5C16 6.83696 16.2634 6.20107 16.7322 5.73223C17.2011 5.26339 17.837 5 18.5 5C19.163 5 19.7989 5.26339 20.2678 5.73223C20.7366 6.20107 21 6.83696 21 7.5V14.5" stroke="white" stroke-width="2" stroke-linecap="round" stroke-linejoin="round"/>
<path d="M11 9.5V5.5C11 4.83696 11.2634 4.20107 11.7322 3.73223C12.2011 3.26339 12.837 3 13.5 3C14.163 3 14.7989 3.26339 15.2678 3.73223C15.7366 4.20107 16 4.83696 16 5.5V14" stroke="white" stroke-width="2" stroke-linecap="round" stroke-linejoin="round"/>
<path d="M16 22C16 20.6739 16.5268 19.4021 17.4645 18.4645C18.4021 17.5268 19.6739 17 21 17V14.5C21 13.837 21.2634 13.2011 21.7322 12.7322C22.2011 12.2634 22.837 12 23.5 12C24.163 12 24.7989 12.2634 25.2678 12.7322C25.7366 13.2011 26 13.837 26 14.5V19C26 21.6522 24.9464 24.1957 23.0711 26.0711C21.1957 27.9464 18.6522 29 16 29C13.3478 29 10.8043 27.9464 8.92893 26.0711C7.05357 24.1957 6 21.6522 6 19V9.5C6 8.83696 6.26339 8.20107 6.73223 7.73223C7.20107 7.26339 7.83696 7 8.5 7C9.16304 7 9.79893 7.26339 10.2678 7.73223C10.7366 8.20107 11 8.83696 11 9.5V15" stroke="white" stroke-width="2" stroke-linecap="round" stroke-linejoin="round"/>
</g>
<defs>
<clipPath id="clip0_2496_1161">
<rect width="32" height="32" fill="white"/>
</clipPath>
</defs>
</svg>
