<svg width="32" height="32" viewBox="0 0 32 32" fill="none" xmlns="http://www.w3.org/2000/svg">
<g clip-path="url(#clip0_2496_1169)">
<path d="M7.99982 27C7.73461 27 7.48025 26.8947 7.29272 26.7072C7.10518 26.5196 6.99982 26.2653 6.99982 26V20.6638C6.46636 20.9162 5.87773 21.0296 5.28868 20.9935C4.69962 20.9574 4.12927 20.7729 3.63065 20.4572C3.13203 20.1415 2.72133 19.7048 2.43674 19.1878C2.15216 18.6708 2.00293 18.0902 2.00293 17.5C2.00293 16.9099 2.15216 16.3293 2.43674 15.8123C2.72133 15.2953 3.13203 14.8586 3.63065 14.5429C4.12927 14.2272 4.69962 14.0427 5.28868 14.0066C5.87773 13.9705 6.46636 14.0839 6.99982 14.3363V9.00004C6.99982 8.73483 7.10518 8.48047 7.29272 8.29294C7.48025 8.1054 7.73461 8.00004 7.99982 8.00004H13.8361C13.5834 7.46657 13.4697 6.87786 13.5057 6.28867C13.5416 5.69948 13.726 5.12896 14.0417 4.63017C14.3573 4.13137 14.794 3.72052 15.3111 3.43582C15.8282 3.15112 16.4089 3.00183 16.9992 3.00183C17.5895 3.00183 18.1702 3.15112 18.6873 3.43582C19.2044 3.72052 19.641 4.13137 19.9567 4.63017C20.2724 5.12896 20.4567 5.69948 20.4927 6.28867C20.5286 6.87786 20.415 7.46657 20.1623 8.00004H25.9998C26.265 8.00004 26.5194 8.1054 26.7069 8.29294C26.8945 8.48047 26.9998 8.73483 26.9998 9.00004V14.3363C26.4664 14.0839 25.8777 13.9705 25.2887 14.0066C24.6996 14.0427 24.1293 14.2272 23.6306 14.5429C23.132 14.8586 22.7213 15.2953 22.4367 15.8123C22.1522 16.3293 22.0029 16.9099 22.0029 17.5C22.0029 18.0902 22.1522 18.6708 22.4367 19.1878C22.7213 19.7048 23.132 20.1415 23.6306 20.4572C24.1293 20.7729 24.6996 20.9574 25.2887 20.9935C25.8777 21.0296 26.4664 20.9162 26.9998 20.6638V26C26.9998 26.2653 26.8945 26.5196 26.7069 26.7072C26.5194 26.8947 26.265 27 25.9998 27H7.99982Z" stroke="white" stroke-width="2" stroke-linecap="round" stroke-linejoin="round"/>
</g>
<defs>
<clipPath id="clip0_2496_1169">
<rect width="32" height="32" fill="white"/>
</clipPath>
</defs>
</svg>
